<svg data-v-423bf9ae="" xmlns="http://www.w3.org/2000/svg" viewBox="0 0 315 90" class="iconLeft"><!----><!----><!---->
    <g data-v-423bf9ae="" id="8c6ef7ad-6cf0-460a-b5be-d78c1f4bc76a" fill="#012F41"
       transform="matrix(5.836575485636349,0,0,5.836575485636349,115.64603064794257,0.23346251939574358)">
        <path d="M9.31 12.67L7.98 12.67L6.88 9.86L2.49 9.86L1.38 12.67L0.03 12.67L3.96 3.04L5.44 3.04L9.31 12.67ZM4.87 4.59L4.68 4.03L4.62 4.22L4.62 4.22Q4.45 4.79 4.12 5.67L4.12 5.67L2.88 8.84L6.49 8.84L5.25 5.66L5.25 5.66Q5.06 5.19 4.87 4.59L4.87 4.59ZM19.48 5.28L17.36 12.67L15.93 12.67L14.64 7.44L14.40 6.29L14.40 6.29Q14.33 6.60 14.21 7.17L14.21 7.17L14.21 7.17Q14.08 7.75 12.81 12.67L12.81 12.67L11.39 12.67L9.32 5.28L10.53 5.28L11.79 10.30L11.79 10.30Q11.83 10.47 12.08 11.66L12.08 11.66L12.20 11.15L13.74 5.28L15.06 5.28L16.35 10.36L16.67 11.66L16.88 10.71L18.28 5.28L19.48 5.28ZM22.28 12.81L22.28 12.81L22.28 12.81Q21.16 12.81 20.60 12.22L20.60 12.22L20.60 12.22Q20.04 11.63 20.04 10.61L20.04 10.61L20.04 10.61Q20.04 9.46 20.80 8.85L20.80 8.85L20.80 8.85Q21.55 8.23 23.24 8.19L23.24 8.19L24.90 8.16L24.90 7.76L24.90 7.76Q24.90 6.86 24.51 6.47L24.51 6.47L24.51 6.47Q24.13 6.08 23.31 6.08L23.31 6.08L23.31 6.08Q22.48 6.08 22.11 6.36L22.11 6.36L22.11 6.36Q21.73 6.64 21.66 7.25L21.66 7.25L20.37 7.14L20.37 7.14Q20.69 5.14 23.34 5.14L23.34 5.14L23.34 5.14Q24.73 5.14 25.44 5.78L25.44 5.78L25.44 5.78Q26.14 6.42 26.14 7.63L26.14 7.63L26.14 10.81L26.14 10.81Q26.14 11.36 26.28 11.64L26.28 11.64L26.28 11.64Q26.43 11.92 26.83 11.92L26.83 11.92L26.83 11.92Q27.01 11.92 27.23 11.87L27.23 11.87L27.23 12.63L27.23 12.63Q26.77 12.74 26.28 12.74L26.28 12.74L26.28 12.74Q25.60 12.74 25.29 12.38L25.29 12.38L25.29 12.38Q24.98 12.02 24.94 11.26L24.94 11.26L24.90 11.26L24.90 11.26Q24.42 12.11 23.80 12.46L23.80 12.46L23.80 12.46Q23.17 12.81 22.28 12.81ZM22.56 11.89L22.56 11.89L22.56 11.89Q23.24 11.89 23.76 11.58L23.76 11.58L23.76 11.58Q24.29 11.27 24.59 10.74L24.59 10.74L24.59 10.74Q24.90 10.20 24.90 9.63L24.90 9.63L24.90 9.02L23.55 9.05L23.55 9.05Q22.68 9.06 22.23 9.23L22.23 9.23L22.23 9.23Q21.79 9.39 21.55 9.73L21.55 9.73L21.55 9.73Q21.31 10.08 21.31 10.63L21.31 10.63L21.31 10.63Q21.31 11.23 21.63 11.56L21.63 11.56L21.63 11.56Q21.96 11.89 22.56 11.89ZM29.40 3.71L28.17 3.71L28.17 2.53L29.40 2.53L29.40 3.71ZM29.40 12.67L28.17 12.67L28.17 5.28L29.40 5.28L29.40 12.67ZM34.13 11.71L34.13 12.62L34.13 12.62Q33.52 12.78 32.89 12.78L32.89 12.78L32.89 12.78Q31.41 12.78 31.41 11.11L31.41 11.11L31.41 6.17L30.56 6.17L30.56 5.28L31.46 5.28L31.82 3.62L32.64 3.62L32.64 5.28L34.01 5.28L34.01 6.17L32.64 6.17L32.64 10.84L32.64 10.84Q32.64 11.38 32.82 11.59L32.82 11.59L32.82 11.59Q32.99 11.81 33.42 11.81L33.42 11.81L33.42 11.81Q33.67 11.81 34.13 11.71L34.13 11.71Z"></path>
    </g>
    <defs data-v-423bf9ae="">
        <linearGradient data-v-423bf9ae="" gradientTransform="rotate(25)" id="21f7cfed-e4ff-488f-990e-ea9158615488"
                        x1="0%" y1="0%" x2="100%" y2="0%">
            <stop data-v-423bf9ae="" offset="0%" style="stop-color: rgb(79, 209, 197); stop-opacity: 1;"></stop>
            <stop data-v-423bf9ae="" offset="100%" style="stop-color: rgb(44, 82, 130); stop-opacity: 1;"></stop>
        </linearGradient>
    </defs>
    <g data-v-423bf9ae="" id="0791d199-aebb-4abc-a75e-f9f2299aeeee"
       transform="matrix(2.994410458179972,0,0,2.994410458179972,0.08943266912044834,-1.9385669710569857)" stroke="none"
       fill="url(#21f7cfed-e4ff-488f-990e-ea9158615488)">
        <path d="M17.572 23.933l4.106 7.095L32 13.189h-8.981V7.582L11.51.972 0 7.582v13.222l11.51 6.611 6.062-3.482zm10.96-8.744l-6.855 11.846-6.855-11.846h13.71z"></path>
    </g><!---->
</svg>